<?xml version="1.0" encoding="UTF-8"?>
<svg version="1.1" xmlns="http://www.w3.org/2000/svg" width="66" height="66">
<path d="M0 0 C16.17 0 32.34 0 49 0 C49 16.5 49 33 49 50 C32.83 50 16.66 50 0 50 C0 33.5 0 17 0 0 Z " fill="#F2F4F9" transform="translate(8,8)"/>
<path d="M0 0 C3.10380501 0.77595125 5.25002779 1.5268006 8 3 C8.66 2.01 9.32 1.02 10 0 C10.99 0 11.98 0 13 0 C13 3.63 13 7.26 13 11 C12.34 11 11.68 11 11 11 C11 9.02 11 7.04 11 5 C10.34 5 9.68 5 9 5 C8.67 5.99 8.34 6.98 8 8 C6.68 7.34 5.36 6.68 4 6 C3.67 7.98 3.34 9.96 3 12 C2.01 12 1.02 12 0 12 C0 8.04 0 4.08 0 0 Z " fill="#4B4B4B" transform="translate(10,23)"/>
<path d="M0 0 C0.33 0 0.66 0 1 0 C1 2.64 1 5.28 1 8 C1.66 8.33 2.32 8.66 3 9 C3 6.03 3 3.06 3 0 C3.66 0 4.32 0 5 0 C5.02688151 1.64574566 5.04634123 3.29161413 5.0625 4.9375 C5.07410156 5.85402344 5.08570312 6.77054688 5.09765625 7.71484375 C5 10 5 10 4 11 C1.64686445 11.07271741 -0.70833668 11.08370868 -3.0625 11.0625 C-4.35285156 11.05347656 -5.64320312 11.04445313 -6.97265625 11.03515625 C-7.97167969 11.02355469 -8.97070312 11.01195312 -10 11 C-10.5625 9.0625 -10.5625 9.0625 -11 7 C-10 6 -10 6 -7.71484375 5.90234375 C-6.34005859 5.91974609 -6.34005859 5.91974609 -4.9375 5.9375 C-4.01839844 5.94652344 -3.09929688 5.95554687 -2.15234375 5.96484375 C-1.44207031 5.97644531 -0.73179688 5.98804688 0 6 C0 4.02 0 2.04 0 0 Z " fill="#6185CC" transform="translate(51,46)"/>
<path d="M0 0 C1.37478516 0.01740234 1.37478516 0.01740234 2.77734375 0.03515625 C3.69644531 0.04417969 4.61554687 0.05320312 5.5625 0.0625 C6.27277344 0.07410156 6.98304687 0.08570312 7.71484375 0.09765625 C7.71484375 1.08765625 7.71484375 2.07765625 7.71484375 3.09765625 C4.74484375 3.09765625 1.77484375 3.09765625 -1.28515625 3.09765625 C-1.28515625 5.07765625 -1.28515625 7.05765625 -1.28515625 9.09765625 C1.68484375 9.09765625 4.65484375 9.09765625 7.71484375 9.09765625 C7.71484375 10.08765625 7.71484375 11.07765625 7.71484375 12.09765625 C6.06909809 12.12453776 4.42322962 12.14399748 2.77734375 12.16015625 C1.86082031 12.17175781 0.94429687 12.18335938 0 12.1953125 C-2.28515625 12.09765625 -2.28515625 12.09765625 -3.28515625 11.09765625 C-3.38339562 9.43336574 -3.41489256 7.76483694 -3.41015625 6.09765625 C-3.41273437 5.19015625 -3.4153125 4.28265625 -3.41796875 3.34765625 C-3.23731504 0.28716995 -3.06704111 0.13107013 0 0 Z " fill="#404040" transform="translate(31.28515625,22.90234375)"/>
<path d="M0 0 C1.27875 0.00257812 2.5575 0.00515625 3.875 0.0078125 C5.15375 0.00523438 6.4325 0.00265625 7.75 0 C10.875 0.1328125 10.875 0.1328125 11.875 1.1328125 C11.94705511 2.81890216 11.95886068 4.50781909 11.9375 6.1953125 C11.92847656 7.11441406 11.91945313 8.03351562 11.91015625 8.98046875 C11.89855469 9.69074219 11.88695313 10.40101562 11.875 11.1328125 C11.215 11.1328125 10.555 11.1328125 9.875 11.1328125 C9.875 7.8328125 9.875 4.5328125 9.875 1.1328125 C5.915 1.1328125 1.955 1.1328125 -2.125 1.1328125 C-2.125 1.7928125 -2.125 2.4528125 -2.125 3.1328125 C1.175 3.1328125 4.475 3.1328125 7.875 3.1328125 C7.875 5.7728125 7.875 8.4128125 7.875 11.1328125 C7.545 11.1328125 7.215 11.1328125 6.875 11.1328125 C6.875 9.1528125 6.875 7.1728125 6.875 5.1328125 C3.575 5.1328125 0.275 5.1328125 -3.125 5.1328125 C-3.455 3.8128125 -3.785 2.4928125 -4.125 1.1328125 C-3.125 0.1328125 -3.125 0.1328125 0 0 Z " fill="#537BC7" transform="translate(44.125,9.8671875)"/>
<path d="M0 0 C3.96 0 7.92 0 12 0 C12 0.99 12 1.98 12 3 C10.68 3 9.36 3 8 3 C8 5.97 8 8.94 8 12 C7.01 12 6.02 12 5 12 C5 9.03 5 6.06 5 3 C3.35 3 1.7 3 0 3 C0 2.01 0 1.02 0 0 Z " fill="#4E4E4E" transform="translate(42,23)"/>
<path d="M0 0 C4.95 0 9.9 0 15 0 C14.67 1.65 14.34 3.3 14 5 C11.03 5 8.06 5 5 5 C5 6.98 5 8.96 5 11 C4.34 11 3.68 11 3 11 C3 8.36 3 5.72 3 3 C6.63 3 10.26 3 14 3 C14 2.34 14 1.68 14 1 C8.06 1.495 8.06 1.495 2 2 C1.67 4.97 1.34 7.94 1 11 C0.67 11 0.34 11 0 11 C0 7.37 0 3.74 0 0 Z " fill="#527AC7" transform="translate(9,10)"/>
<path d="M0 0 C0.99 0 1.98 0 3 0 C3 3.63 3 7.26 3 11 C2.34 11 1.68 11 1 11 C1 9.02 1 7.04 1 5 C0.34 5 -0.32 5 -1 5 C-1.33 5.99 -1.66 6.98 -2 8 C-2.99 7.67 -3.98 7.34 -5 7 C-5 6.34 -5 5.68 -5 5 C-4.01 5 -3.02 5 -2 5 C-1.34 3.35 -0.68 1.7 0 0 Z " fill="#2C2C2C" transform="translate(20,23)"/>
</svg>
